<svg width="106" height="37" viewBox="0 0 106 37" fill="none" xmlns="http://www.w3.org/2000/svg">
<rect width="106" height="37" rx="18.5" fill="#FEFEFE"/>
<path d="M22.2219 14.0909V25H19.9421V15.9659H15.5316V25H13.2518V14.0909H22.2219ZM24.3753 28.0682V16.8182H26.6125V18.1925H26.7137C26.8131 17.9723 26.9569 17.7486 27.1452 17.5213C27.3369 17.2905 27.5855 17.0987 27.8909 16.946C28.1998 16.7898 28.5834 16.7116 29.0415 16.7116C29.6381 16.7116 30.1885 16.8679 30.6927 17.1804C31.197 17.4893 31.6001 17.9563 31.9019 18.5813C32.2037 19.2028 32.3547 19.9822 32.3547 20.9197C32.3547 21.8324 32.2073 22.603 31.9126 23.2315C31.6214 23.8565 31.2236 24.3306 30.7194 24.6538C30.2187 24.9734 29.6576 25.1332 29.0361 25.1332C28.5958 25.1332 28.2211 25.0604 27.9122 24.9148C27.6068 24.7692 27.3564 24.5863 27.1611 24.3661C26.9658 24.1424 26.8167 23.9169 26.7137 23.6896H26.6444V28.0682H24.3753ZM26.5965 20.9091C26.5965 21.3956 26.664 21.82 26.7989 22.1822C26.9339 22.5444 27.1292 22.8267 27.3849 23.0291C27.6405 23.228 27.9513 23.3274 28.317 23.3274C28.6863 23.3274 28.9988 23.2262 29.2545 23.0238C29.5102 22.8178 29.7037 22.5337 29.8351 22.1715C29.9701 21.8058 30.0376 21.3849 30.0376 20.9091C30.0376 20.4368 29.9719 20.0213 29.8405 19.6626C29.7091 19.304 29.5155 19.0234 29.2599 18.821C29.0042 18.6186 28.6899 18.5174 28.317 18.5174C27.9477 18.5174 27.6352 18.6151 27.3795 18.8104C27.1274 19.0057 26.9339 19.2827 26.7989 19.6413C26.664 20 26.5965 20.4226 26.5965 20.9091ZM37.5642 25.1598C36.7368 25.1598 36.0212 24.984 35.4175 24.6325C34.8174 24.2773 34.354 23.7837 34.0273 23.1516C33.7006 22.516 33.5372 21.7791 33.5372 20.9411C33.5372 20.0959 33.7006 19.3572 34.0273 18.7251C34.354 18.0895 34.8174 17.5959 35.4175 17.2443C36.0212 16.8892 36.7368 16.7116 37.5642 16.7116C38.3916 16.7116 39.1054 16.8892 39.7055 17.2443C40.3092 17.5959 40.7744 18.0895 41.1011 18.7251C41.4278 19.3572 41.5912 20.0959 41.5912 20.9411C41.5912 21.7791 41.4278 22.516 41.1011 23.1516C40.7744 23.7837 40.3092 24.2773 39.7055 24.6325C39.1054 24.984 38.3916 25.1598 37.5642 25.1598ZM37.5748 23.402C37.9513 23.402 38.2655 23.2955 38.5177 23.0824C38.7698 22.8658 38.9598 22.571 39.0876 22.1982C39.219 21.8253 39.2847 21.4009 39.2847 20.9251C39.2847 20.4492 39.219 20.0249 39.0876 19.652C38.9598 19.2791 38.7698 18.9844 38.5177 18.7678C38.2655 18.5511 37.9513 18.4428 37.5748 18.4428C37.1949 18.4428 36.8753 18.5511 36.616 18.7678C36.3604 18.9844 36.1668 19.2791 36.0354 19.652C35.9076 20.0249 35.8437 20.4492 35.8437 20.9251C35.8437 21.4009 35.9076 21.8253 36.0354 22.1982C36.1668 22.571 36.3604 22.8658 36.616 23.0824C36.8753 23.2955 37.1949 23.402 37.5748 23.402ZM43.0667 25V16.8182H46.5557C47.5642 16.8182 48.3614 17.0099 48.9474 17.3935C49.5333 17.777 49.8263 18.3221 49.8263 19.0288C49.8263 19.4727 49.6611 19.842 49.3309 20.1367C49.0006 20.4315 48.5425 20.6303 47.9566 20.7333C48.4466 20.7688 48.8639 20.8807 49.2084 21.0689C49.5564 21.2536 49.8209 21.4933 50.002 21.788C50.1867 22.0827 50.279 22.4094 50.279 22.7681C50.279 23.2333 50.1547 23.6328 49.9062 23.9666C49.6611 24.3004 49.3007 24.5561 48.8248 24.7337C48.3525 24.9112 47.7755 25 47.0937 25H43.0667ZM45.1814 23.3008H47.0937C47.4097 23.3008 47.6565 23.2262 47.8341 23.0771C48.0152 22.9244 48.1057 22.7166 48.1057 22.4538C48.1057 22.1626 48.0152 21.9336 47.8341 21.7667C47.6565 21.5998 47.4097 21.5163 47.0937 21.5163H45.1814V23.3008ZM45.1814 20.1847H46.6036C46.8309 20.1847 47.0244 20.1527 47.1842 20.0888C47.3476 20.0213 47.4719 19.9254 47.5571 19.8011C47.6459 19.6768 47.6903 19.5295 47.6903 19.359C47.6903 19.1069 47.589 18.9098 47.3866 18.7678C47.1842 18.6257 46.9072 18.5547 46.5557 18.5547H45.1814V20.1847ZM55.4379 25.1598C54.5963 25.1598 53.8719 24.9893 53.2646 24.6484C52.661 24.304 52.1958 23.8175 51.8691 23.1889C51.5423 22.5568 51.379 21.8093 51.379 20.9464C51.379 20.1048 51.5423 19.3661 51.8691 18.7305C52.1958 18.0948 52.6556 17.5994 53.2487 17.2443C53.8453 16.8892 54.5448 16.7116 55.3474 16.7116C55.8872 16.7116 56.3896 16.7987 56.8548 16.9727C57.3236 17.1431 57.732 17.4006 58.08 17.745C58.4316 18.0895 58.705 18.5227 58.9003 19.0447C59.0956 19.5632 59.1933 20.1705 59.1933 20.8665V21.4897H52.2845V20.0835H57.0573C57.0573 19.7567 56.9862 19.4673 56.8442 19.2152C56.7021 18.9631 56.5051 18.766 56.2529 18.6239C56.0044 18.4783 55.7149 18.4055 55.3847 18.4055C55.0402 18.4055 54.7348 18.4854 54.4685 18.6452C54.2057 18.8015 53.9997 19.0128 53.8506 19.2791C53.7014 19.5419 53.6251 19.8349 53.6215 20.158V21.495C53.6215 21.8999 53.6961 22.2496 53.8453 22.5444C53.998 22.8391 54.2128 23.0664 54.4898 23.2262C54.7668 23.386 55.0953 23.4659 55.4752 23.4659C55.7274 23.4659 55.9582 23.4304 56.1677 23.3594C56.3772 23.2884 56.5566 23.1818 56.7057 23.0398C56.8548 22.8977 56.9685 22.7237 57.0466 22.5178L59.1453 22.6562C59.0388 23.1605 58.8204 23.6009 58.4901 23.9773C58.1634 24.3501 57.7409 24.6413 57.2224 24.8509C56.7075 25.0568 56.1127 25.1598 55.4379 25.1598ZM60.6741 28.0682V16.8182H62.9113V18.1925H63.0125C63.1119 17.9723 63.2558 17.7486 63.444 17.5213C63.6357 17.2905 63.8843 17.0987 64.1897 16.946C64.4987 16.7898 64.8822 16.7116 65.3403 16.7116C65.9369 16.7116 66.4873 16.8679 66.9916 17.1804C67.4958 17.4893 67.8989 17.9563 68.2007 18.5813C68.5026 19.2028 68.6535 19.9822 68.6535 20.9197C68.6535 21.8324 68.5061 22.603 68.2114 23.2315C67.9202 23.8565 67.5225 24.3306 67.0182 24.6538C66.5175 24.9734 65.9564 25.1332 65.335 25.1332C64.8946 25.1332 64.52 25.0604 64.211 24.9148C63.9056 24.7692 63.6553 24.5863 63.46 24.3661C63.2646 24.1424 63.1155 23.9169 63.0125 23.6896H62.9433V28.0682H60.6741ZM62.8953 20.9091C62.8953 21.3956 62.9628 21.82 63.0977 22.1822C63.2327 22.5444 63.428 22.8267 63.6837 23.0291C63.9394 23.228 64.2501 23.3274 64.6159 23.3274C64.9852 23.3274 65.2977 23.2262 65.5534 23.0238C65.809 22.8178 66.0026 22.5337 66.134 22.1715C66.2689 21.8058 66.3364 21.3849 66.3364 20.9091C66.3364 20.4368 66.2707 20.0213 66.1393 19.6626C66.0079 19.304 65.8144 19.0234 65.5587 18.821C65.303 18.6186 64.9887 18.5174 64.6159 18.5174C64.2465 18.5174 63.934 18.6151 63.6784 18.8104C63.4262 19.0057 63.2327 19.2827 63.0977 19.6413C62.9628 20 62.8953 20.4226 62.8953 20.9091ZM72.3343 22.0064L75.2799 16.8182H77.5171V25H75.3545V19.7958L72.4195 25H70.1663V16.8182H72.3343V22.0064ZM78.5146 18.6026V16.8182H85.9293V18.6026H83.2926V25H81.13V18.6026H78.5146ZM88.7272 19.3324H91.1721C92.2552 19.3324 93.1004 19.5916 93.7077 20.1101C94.3149 20.625 94.6185 21.3139 94.6185 22.1768C94.6185 22.7379 94.4818 23.2315 94.2084 23.6577C93.9349 24.0803 93.5407 24.4105 93.0258 24.6484C92.5109 24.8828 91.893 25 91.1721 25H87.305V16.8182H89.4729V23.2156H91.1721C91.5521 23.2156 91.8646 23.1197 92.1096 22.9279C92.3547 22.7362 92.479 22.4911 92.4825 22.1928C92.479 21.8768 92.3547 21.6193 92.1096 21.4205C91.8646 21.218 91.5521 21.1168 91.1721 21.1168H88.7272V19.3324Z" fill="black"/>
</svg>
