<svg width="410" height="87" viewBox="0 0 410 87" fill="none" xmlns="http://www.w3.org/2000/svg">
<rect width="410" height="87" rx="20" fill="#373259"/>
<path fill-rule="evenodd" clip-rule="evenodd" d="M37.5 49C47.1635 49 55 41.6113 55 32.5C55 23.3887 47.1635 16 37.5 16C27.8365 16 20 23.3887 20 32.5C20 41.6113 27.8365 49 37.5 49Z" fill="#6D97B5"/>
<path fill-rule="evenodd" clip-rule="evenodd" d="M37.5086 24.6378H37.6299C40.2969 24.7113 42.4357 27.1197 42.4357 30.0834C42.4357 33.047 40.2969 35.4636 37.6299 35.5289H37.5C34.4607 35.5289 32.573 32.7123 32.573 30.0752C32.573 27.1116 34.7118 24.695 37.3788 24.6296H37.5086V24.6378ZM26.7541 45.2934C26.7541 45.2934 30.3649 38.5742 32.98 37.4312C35.1187 36.5005 39.9072 36.5005 42.0373 37.4312C44.6524 38.5661 48.2632 45.2934 48.2632 45.2934C44.7043 48.0285 40.2189 48.7469 38.1061 48.9347V49C38.1061 49 37.8896 49 37.5086 48.9755C37.1277 49 36.9112 49 36.9112 49V48.9347C34.7984 48.7469 30.313 48.0285 26.7541 45.2934Z" fill="#E6E6E6"/>
</svg>
