<svg width="410" height="65" viewBox="0 0 410 65" fill="none" xmlns="http://www.w3.org/2000/svg">
<rect width="410" height="65" rx="20" fill="#373259"/>
<path d="M38.6293 24.4545V39H35.5895V26.9545H29.7088V39H26.669V24.4545H38.6293ZM46.4293 39.2131C45.3261 39.2131 44.372 38.9787 43.5671 38.5099C42.7669 38.0365 42.149 37.3783 41.7134 36.5355C41.2778 35.688 41.06 34.7055 41.06 33.5881C41.06 32.4612 41.2778 31.4763 41.7134 30.6335C42.149 29.786 42.7669 29.1278 43.5671 28.6591C44.372 28.1856 45.3261 27.9489 46.4293 27.9489C47.5326 27.9489 48.4843 28.1856 49.2844 28.6591C50.0894 29.1278 50.7096 29.786 51.1452 30.6335C51.5808 31.4763 51.7987 32.4612 51.7987 33.5881C51.7987 34.7055 51.5808 35.688 51.1452 36.5355C50.7096 37.3783 50.0894 38.0365 49.2844 38.5099C48.4843 38.9787 47.5326 39.2131 46.4293 39.2131ZM46.4435 36.8693C46.9454 36.8693 47.3645 36.7273 47.7006 36.4432C48.0368 36.1544 48.2901 35.7614 48.4606 35.2642C48.6358 34.767 48.7234 34.2012 48.7234 33.5668C48.7234 32.9323 48.6358 32.3665 48.4606 31.8693C48.2901 31.3722 48.0368 30.9792 47.7006 30.6903C47.3645 30.4015 46.9454 30.2571 46.4435 30.2571C45.9369 30.2571 45.5108 30.4015 45.1651 30.6903C44.8242 30.9792 44.5662 31.3722 44.391 31.8693C44.2205 32.3665 44.1353 32.9323 44.1353 33.5668C44.1353 34.2012 44.2205 34.767 44.391 35.2642C44.5662 35.7614 44.8242 36.1544 45.1651 36.4432C45.5108 36.7273 45.9369 36.8693 46.4435 36.8693ZM52.9137 42.196V36.5994H53.7518C53.9933 36.4479 54.1874 36.2064 54.3342 35.875C54.4857 35.5436 54.6088 35.1529 54.7035 34.7031C54.8029 34.2533 54.8787 33.768 54.9308 33.2472C54.9876 32.7216 55.0373 32.1913 55.0799 31.6562L55.364 28.0909H63.7305V36.5994H65.4208V42.196H62.5373V39H55.8683V42.196H52.9137ZM56.7631 36.5994H60.8754V30.4205H57.935L57.8214 31.6562C57.7409 32.821 57.6249 33.8106 57.4734 34.625C57.3219 35.4347 57.0851 36.0928 56.7631 36.5994ZM67.1839 39V28.0909H76.7223V39H73.8317V30.4702H70.0391V39H67.1839ZM82.0277 35.0085L85.9553 28.0909H88.9382V39H86.0547V32.0611L82.1413 39H79.1371V28.0909H82.0277V35.0085ZM96.2926 39.2131C95.1752 39.2131 94.214 38.9763 93.4091 38.5028C92.6089 38.0246 91.9934 37.3617 91.5625 36.5142C91.1364 35.6667 90.9233 34.6913 90.9233 33.5881C90.9233 32.4706 91.1387 31.4905 91.5696 30.6477C92.0052 29.8002 92.6231 29.1397 93.4233 28.6662C94.2235 28.188 95.1752 27.9489 96.2784 27.9489C97.2301 27.9489 98.0634 28.1217 98.7784 28.4673C99.4934 28.813 100.059 29.2983 100.476 29.9233C100.893 30.5483 101.122 31.2822 101.165 32.125H98.3097C98.2292 31.5805 98.0161 31.1425 97.6705 30.8111C97.3295 30.4749 96.8821 30.3068 96.3281 30.3068C95.8594 30.3068 95.4498 30.4347 95.0994 30.6903C94.7538 30.9413 94.4839 31.3082 94.2898 31.7912C94.0956 32.2741 93.9986 32.8589 93.9986 33.5455C93.9986 34.2415 94.0933 34.8333 94.2827 35.321C94.4768 35.8087 94.7491 36.1804 95.0994 36.4361C95.4498 36.6918 95.8594 36.8196 96.3281 36.8196C96.6738 36.8196 96.9839 36.7486 97.2585 36.6065C97.5379 36.4645 97.7675 36.2585 97.9474 35.9886C98.1321 35.714 98.2528 35.3849 98.3097 35.0014H101.165C101.117 35.8348 100.89 36.5687 100.483 37.2031C100.08 37.8329 99.5241 38.3253 98.8139 38.6804C98.1037 39.0355 97.2633 39.2131 96.2926 39.2131ZM103.102 39V28.0909H106.127V32.3239H106.98L109.949 28.0909H113.5L109.643 33.5028L113.542 39H109.949L107.257 35.1293H106.127V39H103.102ZM117.931 39.206C117.235 39.206 116.615 39.0852 116.071 38.8438C115.526 38.5975 115.095 38.2353 114.778 37.7571C114.466 37.2741 114.309 36.6728 114.309 35.9531C114.309 35.3471 114.421 34.8381 114.643 34.4261C114.866 34.0142 115.169 33.6828 115.552 33.4318C115.936 33.1809 116.371 32.9915 116.859 32.8636C117.351 32.7358 117.868 32.6458 118.407 32.5938C119.042 32.5275 119.553 32.4659 119.941 32.4091C120.33 32.3475 120.611 32.2576 120.787 32.1392C120.962 32.0208 121.049 31.8456 121.049 31.6136V31.571C121.049 31.1212 120.907 30.7732 120.623 30.527C120.344 30.2808 119.946 30.1577 119.43 30.1577C118.886 30.1577 118.452 30.2784 118.13 30.5199C117.808 30.7566 117.595 31.0549 117.491 31.4148L114.693 31.1875C114.835 30.5246 115.114 29.9517 115.531 29.4688C115.948 28.9811 116.485 28.607 117.143 28.3466C117.806 28.0814 118.573 27.9489 119.444 27.9489C120.05 27.9489 120.63 28.0199 121.184 28.1619C121.743 28.304 122.238 28.5241 122.669 28.8224C123.104 29.1207 123.448 29.5043 123.699 29.973C123.949 30.437 124.075 30.9934 124.075 31.642V39H121.206V37.4872H121.12C120.945 37.8281 120.711 38.1288 120.417 38.3892C120.124 38.6449 119.771 38.8461 119.359 38.9929C118.947 39.1349 118.471 39.206 117.931 39.206ZM118.798 37.1179C119.243 37.1179 119.636 37.0303 119.977 36.8551C120.318 36.6752 120.585 36.4337 120.779 36.1307C120.974 35.8277 121.071 35.4844 121.071 35.1009V33.9432C120.976 34.0047 120.846 34.0616 120.68 34.1136C120.519 34.161 120.337 34.206 120.133 34.2486C119.93 34.2865 119.726 34.322 119.522 34.3551C119.319 34.3835 119.134 34.4096 118.968 34.4332C118.613 34.4853 118.303 34.5682 118.038 34.6818C117.773 34.7955 117.567 34.9493 117.42 35.1435C117.273 35.3329 117.2 35.5696 117.2 35.8537C117.2 36.2656 117.349 36.5805 117.647 36.7983C117.95 37.0114 118.334 37.1179 118.798 37.1179ZM138.643 32.3381V34.7173H132.947V32.3381H138.643ZM133.942 28.0909V39H131.051V28.0909H133.942ZM140.54 28.0909V39H137.67V28.0909H140.54ZM145.998 39.206C145.302 39.206 144.682 39.0852 144.137 38.8438C143.593 38.5975 143.162 38.2353 142.844 37.7571C142.532 37.2741 142.376 36.6728 142.376 35.9531C142.376 35.3471 142.487 34.8381 142.71 34.4261C142.932 34.0142 143.235 33.6828 143.619 33.4318C144.002 33.1809 144.438 32.9915 144.925 32.8636C145.418 32.7358 145.934 32.6458 146.474 32.5938C147.108 32.5275 147.62 32.4659 148.008 32.4091C148.396 32.3475 148.678 32.2576 148.853 32.1392C149.028 32.0208 149.116 31.8456 149.116 31.6136V31.571C149.116 31.1212 148.974 30.7732 148.69 30.527C148.41 30.2808 148.013 30.1577 147.496 30.1577C146.952 30.1577 146.519 30.2784 146.197 30.5199C145.875 30.7566 145.662 31.0549 145.558 31.4148L142.759 31.1875C142.901 30.5246 143.181 29.9517 143.597 29.4688C144.014 28.9811 144.551 28.607 145.21 28.3466C145.872 28.0814 146.639 27.9489 147.511 27.9489C148.117 27.9489 148.697 28.0199 149.251 28.1619C149.809 28.304 150.304 28.5241 150.735 28.8224C151.171 29.1207 151.514 29.5043 151.765 29.973C152.016 30.437 152.141 30.9934 152.141 31.642V39H149.272V37.4872H149.187C149.012 37.8281 148.777 38.1288 148.484 38.3892C148.19 38.6449 147.837 38.8461 147.425 38.9929C147.013 39.1349 146.538 39.206 145.998 39.206ZM146.864 37.1179C147.309 37.1179 147.702 37.0303 148.043 36.8551C148.384 36.6752 148.652 36.4337 148.846 36.1307C149.04 35.8277 149.137 35.4844 149.137 35.1009V33.9432C149.042 34.0047 148.912 34.0616 148.746 34.1136C148.585 34.161 148.403 34.206 148.2 34.2486C147.996 34.2865 147.792 34.322 147.589 34.3551C147.385 34.3835 147.201 34.4096 147.035 34.4332C146.68 34.4853 146.37 34.5682 146.104 34.6818C145.839 34.7955 145.633 34.9493 145.487 35.1435C145.34 35.3329 145.266 35.5696 145.266 35.8537C145.266 36.2656 145.415 36.5805 145.714 36.7983C146.017 37.0114 146.4 37.1179 146.864 37.1179ZM158.549 30.4702V28.0909H168.436V30.4702H164.92V39H162.037V30.4702H158.549ZM177.741 28.0909V30.4702H173.21V39H170.27V28.0909H177.741ZM184.215 39V28.0909H187.241V32.3239H188.093L191.062 28.0909H194.613L190.756 33.5028L194.656 39H191.062L188.37 35.1293H187.241V39H184.215ZM199.045 39.206C198.349 39.206 197.728 39.0852 197.184 38.8438C196.639 38.5975 196.209 38.2353 195.891 37.7571C195.579 37.2741 195.423 36.6728 195.423 35.9531C195.423 35.3471 195.534 34.8381 195.756 34.4261C195.979 34.0142 196.282 33.6828 196.665 33.4318C197.049 33.1809 197.485 32.9915 197.972 32.8636C198.465 32.7358 198.981 32.6458 199.521 32.5938C200.155 32.5275 200.666 32.4659 201.055 32.4091C201.443 32.3475 201.725 32.2576 201.9 32.1392C202.075 32.0208 202.163 31.8456 202.163 31.6136V31.571C202.163 31.1212 202.021 30.7732 201.737 30.527C201.457 30.2808 201.059 30.1577 200.543 30.1577C199.999 30.1577 199.566 30.2784 199.244 30.5199C198.922 30.7566 198.709 31.0549 198.604 31.4148L195.806 31.1875C195.948 30.5246 196.228 29.9517 196.644 29.4688C197.061 28.9811 197.598 28.607 198.256 28.3466C198.919 28.0814 199.686 27.9489 200.558 27.9489C201.164 27.9489 201.744 28.0199 202.298 28.1619C202.856 28.304 203.351 28.5241 203.782 28.8224C204.218 29.1207 204.561 29.5043 204.812 29.973C205.063 30.437 205.188 30.9934 205.188 31.642V39H202.319V37.4872H202.234C202.058 37.8281 201.824 38.1288 201.531 38.3892C201.237 38.6449 200.884 38.8461 200.472 38.9929C200.06 39.1349 199.585 39.206 199.045 39.206ZM199.911 37.1179C200.356 37.1179 200.749 37.0303 201.09 36.8551C201.431 36.6752 201.699 36.4337 201.893 36.1307C202.087 35.8277 202.184 35.4844 202.184 35.1009V33.9432C202.089 34.0047 201.959 34.0616 201.793 34.1136C201.632 34.161 201.45 34.206 201.246 34.2486C201.043 34.2865 200.839 34.322 200.636 34.3551C200.432 34.3835 200.247 34.4096 200.082 34.4332C199.727 34.4853 199.416 34.5682 199.151 34.6818C198.886 34.7955 198.68 34.9493 198.533 35.1435C198.387 35.3329 198.313 35.5696 198.313 35.8537C198.313 36.2656 198.462 36.5805 198.761 36.7983C199.064 37.0114 199.447 37.1179 199.911 37.1179ZM215.128 32.3381V34.7173H209.432V32.3381H215.128ZM210.426 28.0909V39H207.536V28.0909H210.426ZM217.024 28.0909V39H214.155V28.0909H217.024ZM222.482 39.206C221.786 39.206 221.166 39.0852 220.621 38.8438C220.077 38.5975 219.646 38.2353 219.329 37.7571C219.016 37.2741 218.86 36.6728 218.86 35.9531C218.86 35.3471 218.971 34.8381 219.194 34.4261C219.416 34.0142 219.719 33.6828 220.103 33.4318C220.487 33.1809 220.922 32.9915 221.41 32.8636C221.902 32.7358 222.418 32.6458 222.958 32.5938C223.593 32.5275 224.104 32.4659 224.492 32.4091C224.88 32.3475 225.162 32.2576 225.337 32.1392C225.513 32.0208 225.6 31.8456 225.6 31.6136V31.571C225.6 31.1212 225.458 30.7732 225.174 30.527C224.895 30.2808 224.497 30.1577 223.981 30.1577C223.436 30.1577 223.003 30.2784 222.681 30.5199C222.359 30.7566 222.146 31.0549 222.042 31.4148L219.244 31.1875C219.386 30.5246 219.665 29.9517 220.082 29.4688C220.498 28.9811 221.036 28.607 221.694 28.3466C222.357 28.0814 223.124 27.9489 223.995 27.9489C224.601 27.9489 225.181 28.0199 225.735 28.1619C226.294 28.304 226.789 28.5241 227.219 28.8224C227.655 29.1207 227.998 29.5043 228.249 29.973C228.5 30.437 228.626 30.9934 228.626 31.642V39H225.756V37.4872H225.671C225.496 37.8281 225.262 38.1288 224.968 38.3892C224.674 38.6449 224.322 38.8461 223.91 38.9929C223.498 39.1349 223.022 39.206 222.482 39.206ZM223.349 37.1179C223.794 37.1179 224.187 37.0303 224.528 36.8551C224.869 36.6752 225.136 36.4337 225.33 36.1307C225.524 35.8277 225.621 35.4844 225.621 35.1009V33.9432C225.527 34.0047 225.397 34.0616 225.231 34.1136C225.07 34.161 224.888 34.206 224.684 34.2486C224.48 34.2865 224.277 34.322 224.073 34.3551C223.87 34.3835 223.685 34.4096 223.519 34.4332C223.164 34.4853 222.854 34.5682 222.589 34.6818C222.324 34.7955 222.118 34.9493 221.971 35.1435C221.824 35.3329 221.751 35.5696 221.751 35.8537C221.751 36.2656 221.9 36.5805 222.198 36.7983C222.501 37.0114 222.885 37.1179 223.349 37.1179ZM230.334 39L230.32 36.5994H230.682C230.938 36.5994 231.158 36.5379 231.342 36.4148C231.532 36.2869 231.688 36.081 231.811 35.7969C231.934 35.5128 232.031 35.1364 232.102 34.6676C232.173 34.1941 232.221 33.6117 232.244 32.9205L232.422 28.0909H240.717V39H237.834V30.4702H235.142L234.972 33.8011C234.929 34.715 234.818 35.5009 234.638 36.1591C234.463 36.8172 234.219 37.357 233.906 37.7784C233.594 38.1951 233.217 38.5028 232.777 38.7017C232.337 38.9006 231.825 39 231.243 39H230.334Z" fill="white"/>
</svg>
