<svg width="410" height="65" viewBox="0 0 410 65" fill="none" xmlns="http://www.w3.org/2000/svg">
<rect width="410" height="65" rx="20" fill="#373259"/>
<path d="M38.6293 26.4545V41H35.5895V28.9545H29.7088V41H26.669V26.4545H38.6293ZM46.4293 41.2131C45.3261 41.2131 44.372 40.9787 43.5671 40.5099C42.7669 40.0365 42.149 39.3783 41.7134 38.5355C41.2778 37.688 41.06 36.7055 41.06 35.5881C41.06 34.4612 41.2778 33.4763 41.7134 32.6335C42.149 31.786 42.7669 31.1278 43.5671 30.6591C44.372 30.1856 45.3261 29.9489 46.4293 29.9489C47.5326 29.9489 48.4843 30.1856 49.2844 30.6591C50.0894 31.1278 50.7096 31.786 51.1452 32.6335C51.5808 33.4763 51.7987 34.4612 51.7987 35.5881C51.7987 36.7055 51.5808 37.688 51.1452 38.5355C50.7096 39.3783 50.0894 40.0365 49.2844 40.5099C48.4843 40.9787 47.5326 41.2131 46.4293 41.2131ZM46.4435 38.8693C46.9454 38.8693 47.3645 38.7273 47.7006 38.4432C48.0368 38.1544 48.2901 37.7614 48.4606 37.2642C48.6358 36.767 48.7234 36.2012 48.7234 35.5668C48.7234 34.9323 48.6358 34.3665 48.4606 33.8693C48.2901 33.3722 48.0368 32.9792 47.7006 32.6903C47.3645 32.4015 46.9454 32.2571 46.4435 32.2571C45.9369 32.2571 45.5108 32.4015 45.1651 32.6903C44.8242 32.9792 44.5662 33.3722 44.391 33.8693C44.2205 34.3665 44.1353 34.9323 44.1353 35.5668C44.1353 36.2012 44.2205 36.767 44.391 37.2642C44.5662 37.7614 44.8242 38.1544 45.1651 38.4432C45.5108 38.7273 45.9369 38.8693 46.4435 38.8693ZM52.9137 44.196V38.5994H53.7518C53.9933 38.4479 54.1874 38.2064 54.3342 37.875C54.4857 37.5436 54.6088 37.1529 54.7035 36.7031C54.8029 36.2533 54.8787 35.768 54.9308 35.2472C54.9876 34.7216 55.0373 34.1913 55.0799 33.6562L55.364 30.0909H63.7305V38.5994H65.4208V44.196H62.5373V41H55.8683V44.196H52.9137ZM56.7631 38.5994H60.8754V32.4205H57.935L57.8214 33.6562C57.7409 34.821 57.6249 35.8106 57.4734 36.625C57.3219 37.4347 57.0851 38.0928 56.7631 38.5994ZM67.1839 41V30.0909H76.7223V41H73.8317V32.4702H70.0391V41H67.1839ZM82.0277 37.0085L85.9553 30.0909H88.9382V41H86.0547V34.0611L82.1413 41H79.1371V30.0909H82.0277V37.0085ZM96.2926 41.2131C95.1752 41.2131 94.214 40.9763 93.4091 40.5028C92.6089 40.0246 91.9934 39.3617 91.5625 38.5142C91.1364 37.6667 90.9233 36.6913 90.9233 35.5881C90.9233 34.4706 91.1387 33.4905 91.5696 32.6477C92.0052 31.8002 92.6231 31.1397 93.4233 30.6662C94.2235 30.188 95.1752 29.9489 96.2784 29.9489C97.2301 29.9489 98.0634 30.1217 98.7784 30.4673C99.4934 30.813 100.059 31.2983 100.476 31.9233C100.893 32.5483 101.122 33.2822 101.165 34.125H98.3097C98.2292 33.5805 98.0161 33.1425 97.6705 32.8111C97.3295 32.4749 96.8821 32.3068 96.3281 32.3068C95.8594 32.3068 95.4498 32.4347 95.0994 32.6903C94.7538 32.9413 94.4839 33.3082 94.2898 33.7912C94.0956 34.2741 93.9986 34.8589 93.9986 35.5455C93.9986 36.2415 94.0933 36.8333 94.2827 37.321C94.4768 37.8087 94.7491 38.1804 95.0994 38.4361C95.4498 38.6918 95.8594 38.8196 96.3281 38.8196C96.6738 38.8196 96.9839 38.7486 97.2585 38.6065C97.5379 38.4645 97.7675 38.2585 97.9474 37.9886C98.1321 37.714 98.2528 37.3849 98.3097 37.0014H101.165C101.117 37.8348 100.89 38.5687 100.483 39.2031C100.08 39.8329 99.5241 40.3253 98.8139 40.6804C98.1037 41.0355 97.2633 41.2131 96.2926 41.2131ZM103.102 41V30.0909H106.127V34.3239H106.98L109.949 30.0909H113.5L109.643 35.5028L113.542 41H109.949L107.257 37.1293H106.127V41H103.102ZM127.042 34.3381V36.7173H121.346V34.3381H127.042ZM122.34 30.0909V41H119.45V30.0909H122.34ZM128.938 30.0909V41H126.069V30.0909H128.938ZM134.396 41.206C133.7 41.206 133.08 41.0852 132.536 40.8438C131.991 40.5975 131.56 40.2353 131.243 39.7571C130.93 39.2741 130.774 38.6728 130.774 37.9531C130.774 37.3471 130.885 36.8381 131.108 36.4261C131.33 36.0142 131.634 35.6828 132.017 35.4318C132.401 35.1809 132.836 34.9915 133.324 34.8636C133.816 34.7358 134.332 34.6458 134.872 34.5938C135.507 34.5275 136.018 34.4659 136.406 34.4091C136.795 34.3475 137.076 34.2576 137.251 34.1392C137.427 34.0208 137.514 33.8456 137.514 33.6136V33.571C137.514 33.1212 137.372 32.7732 137.088 32.527C136.809 32.2808 136.411 32.1577 135.895 32.1577C135.35 32.1577 134.917 32.2784 134.595 32.5199C134.273 32.7566 134.06 33.0549 133.956 33.4148L131.158 33.1875C131.3 32.5246 131.579 31.9517 131.996 31.4688C132.412 30.9811 132.95 30.607 133.608 30.3466C134.271 30.0814 135.038 29.9489 135.909 29.9489C136.515 29.9489 137.095 30.0199 137.649 30.1619C138.208 30.304 138.703 30.5241 139.134 30.8224C139.569 31.1207 139.912 31.5043 140.163 31.973C140.414 32.437 140.54 32.9934 140.54 33.642V41H137.67V39.4872H137.585C137.41 39.8281 137.176 40.1288 136.882 40.3892C136.589 40.6449 136.236 40.8461 135.824 40.9929C135.412 41.1349 134.936 41.206 134.396 41.206ZM135.263 39.1179C135.708 39.1179 136.101 39.0303 136.442 38.8551C136.783 38.6752 137.05 38.4337 137.244 38.1307C137.438 37.8277 137.536 37.4844 137.536 37.1009V35.9432C137.441 36.0047 137.311 36.0616 137.145 36.1136C136.984 36.161 136.802 36.206 136.598 36.2486C136.394 36.2865 136.191 36.322 135.987 36.3551C135.784 36.3835 135.599 36.4096 135.433 36.4332C135.078 36.4853 134.768 36.5682 134.503 36.6818C134.238 36.7955 134.032 36.9493 133.885 37.1435C133.738 37.3329 133.665 37.5696 133.665 37.8537C133.665 38.2656 133.814 38.5805 134.112 38.7983C134.415 39.0114 134.799 39.1179 135.263 39.1179ZM154.988 30.0909V32.4702H150.456V41H147.516V30.0909H154.988ZM156.832 45.0909V30.0909H159.815V31.9233H159.95C160.083 31.6297 160.275 31.3314 160.526 31.0284C160.781 30.7206 161.113 30.465 161.52 30.2614C161.932 30.053 162.443 29.9489 163.054 29.9489C163.849 29.9489 164.583 30.1572 165.256 30.5739C165.928 30.9858 166.465 31.6084 166.868 32.4418C167.27 33.2704 167.472 34.3097 167.472 35.5597C167.472 36.7765 167.275 37.804 166.882 38.642C166.494 39.4754 165.964 40.1075 165.291 40.5384C164.624 40.9645 163.875 41.1776 163.047 41.1776C162.46 41.1776 161.96 41.0805 161.548 40.8864C161.141 40.6922 160.807 40.4484 160.547 40.1548C160.286 39.8565 160.088 39.5559 159.95 39.2528H159.858V45.0909H156.832ZM159.794 35.5455C159.794 36.1941 159.884 36.7599 160.064 37.2429C160.244 37.7259 160.504 38.1023 160.845 38.3722C161.186 38.6373 161.6 38.7699 162.088 38.7699C162.58 38.7699 162.997 38.6349 163.338 38.3651C163.679 38.0904 163.937 37.7116 164.112 37.2287C164.292 36.741 164.382 36.1799 164.382 35.5455C164.382 34.9157 164.295 34.3617 164.119 33.8835C163.944 33.4053 163.686 33.0312 163.345 32.7614C163.004 32.4915 162.585 32.3565 162.088 32.3565C161.596 32.3565 161.179 32.4867 160.838 32.7472C160.502 33.0076 160.244 33.3769 160.064 33.8551C159.884 34.3333 159.794 34.8968 159.794 35.5455ZM171.005 45.0909C170.621 45.0909 170.262 45.0601 169.925 44.9986C169.594 44.9418 169.319 44.8684 169.102 44.7784L169.783 42.5199C170.138 42.6288 170.458 42.688 170.742 42.6974C171.031 42.7069 171.28 42.6406 171.488 42.4986C171.701 42.3565 171.874 42.1151 172.006 41.7741L172.184 41.3125L168.271 30.0909H171.452L173.711 38.1023H173.825L176.104 30.0909H179.308L175.067 42.179C174.864 42.7661 174.587 43.2775 174.237 43.7131C173.891 44.1534 173.453 44.492 172.923 44.7287C172.392 44.9702 171.753 45.0909 171.005 45.0909ZM180.856 41V30.0909H190.394V41H187.504V32.4702H183.711V41H180.856ZM192.809 41V30.0909H202.347V41H199.457V32.4702H195.664V41H192.809ZM206.239 45.0909C205.856 45.0909 205.496 45.0601 205.16 44.9986C204.828 44.9418 204.554 44.8684 204.336 44.7784L205.018 42.5199C205.373 42.6288 205.692 42.688 205.977 42.6974C206.265 42.7069 206.514 42.6406 206.722 42.4986C206.935 42.3565 207.108 42.1151 207.241 41.7741L207.418 41.3125L203.505 30.0909H206.687L208.945 38.1023H209.059L211.339 30.0909H214.542L210.302 42.179C210.098 42.7661 209.821 43.2775 209.471 43.7131C209.125 44.1534 208.687 44.492 208.157 44.7287C207.627 44.9702 206.987 45.0909 206.239 45.0909ZM223.404 26.4545L226.919 37.5057H227.054L230.577 26.4545H233.986L228.972 41H225.009L219.988 26.4545H223.404ZM235.737 41V26.4545H238.812V32.8679H239.004L244.238 26.4545H247.924L242.527 32.9673L247.988 41H244.309L240.325 35.0199L238.812 36.8665V41H235.737Z" fill="white"/>
</svg>
