<svg width="410" height="65" viewBox="0 0 410 65" fill="none" xmlns="http://www.w3.org/2000/svg">
<rect width="410" height="65" rx="20" fill="#373259"/>
<path d="M38.6293 26.4545V41H35.5895V28.9545H29.7088V41H26.669V26.4545H38.6293ZM46.4293 41.2131C45.3261 41.2131 44.372 40.9787 43.5671 40.5099C42.7669 40.0365 42.149 39.3783 41.7134 38.5355C41.2778 37.688 41.06 36.7055 41.06 35.5881C41.06 34.4612 41.2778 33.4763 41.7134 32.6335C42.149 31.786 42.7669 31.1278 43.5671 30.6591C44.372 30.1856 45.3261 29.9489 46.4293 29.9489C47.5326 29.9489 48.4843 30.1856 49.2844 30.6591C50.0894 31.1278 50.7096 31.786 51.1452 32.6335C51.5808 33.4763 51.7987 34.4612 51.7987 35.5881C51.7987 36.7055 51.5808 37.688 51.1452 38.5355C50.7096 39.3783 50.0894 40.0365 49.2844 40.5099C48.4843 40.9787 47.5326 41.2131 46.4293 41.2131ZM46.4435 38.8693C46.9454 38.8693 47.3645 38.7273 47.7006 38.4432C48.0368 38.1544 48.2901 37.7614 48.4606 37.2642C48.6358 36.767 48.7234 36.2012 48.7234 35.5668C48.7234 34.9323 48.6358 34.3665 48.4606 33.8693C48.2901 33.3722 48.0368 32.9792 47.7006 32.6903C47.3645 32.4015 46.9454 32.2571 46.4435 32.2571C45.9369 32.2571 45.5108 32.4015 45.1651 32.6903C44.8242 32.9792 44.5662 33.3722 44.391 33.8693C44.2205 34.3665 44.1353 34.9323 44.1353 35.5668C44.1353 36.2012 44.2205 36.767 44.391 37.2642C44.5662 37.7614 44.8242 38.1544 45.1651 38.4432C45.5108 38.7273 45.9369 38.8693 46.4435 38.8693ZM52.9137 44.196V38.5994H53.7518C53.9933 38.4479 54.1874 38.2064 54.3342 37.875C54.4857 37.5436 54.6088 37.1529 54.7035 36.7031C54.8029 36.2533 54.8787 35.768 54.9308 35.2472C54.9876 34.7216 55.0373 34.1913 55.0799 33.6562L55.364 30.0909H63.7305V38.5994H65.4208V44.196H62.5373V41H55.8683V44.196H52.9137ZM56.7631 38.5994H60.8754V32.4205H57.935L57.8214 33.6562C57.7409 34.821 57.6249 35.8106 57.4734 36.625C57.3219 37.4347 57.0851 38.0928 56.7631 38.5994ZM67.1839 41V30.0909H76.7223V41H73.8317V32.4702H70.0391V41H67.1839ZM82.0277 37.0085L85.9553 30.0909H88.9382V41H86.0547V34.0611L82.1413 41H79.1371V30.0909H82.0277V37.0085ZM96.2926 41.2131C95.1752 41.2131 94.214 40.9763 93.4091 40.5028C92.6089 40.0246 91.9934 39.3617 91.5625 38.5142C91.1364 37.6667 90.9233 36.6913 90.9233 35.5881C90.9233 34.4706 91.1387 33.4905 91.5696 32.6477C92.0052 31.8002 92.6231 31.1397 93.4233 30.6662C94.2235 30.188 95.1752 29.9489 96.2784 29.9489C97.2301 29.9489 98.0634 30.1217 98.7784 30.4673C99.4934 30.813 100.059 31.2983 100.476 31.9233C100.893 32.5483 101.122 33.2822 101.165 34.125H98.3097C98.2292 33.5805 98.0161 33.1425 97.6705 32.8111C97.3295 32.4749 96.8821 32.3068 96.3281 32.3068C95.8594 32.3068 95.4498 32.4347 95.0994 32.6903C94.7538 32.9413 94.4839 33.3082 94.2898 33.7912C94.0956 34.2741 93.9986 34.8589 93.9986 35.5455C93.9986 36.2415 94.0933 36.8333 94.2827 37.321C94.4768 37.8087 94.7491 38.1804 95.0994 38.4361C95.4498 38.6918 95.8594 38.8196 96.3281 38.8196C96.6738 38.8196 96.9839 38.7486 97.2585 38.6065C97.5379 38.4645 97.7675 38.2585 97.9474 37.9886C98.1321 37.714 98.2528 37.3849 98.3097 37.0014H101.165C101.117 37.8348 100.89 38.5687 100.483 39.2031C100.08 39.8329 99.5241 40.3253 98.8139 40.6804C98.1037 41.0355 97.2633 41.2131 96.2926 41.2131ZM103.102 41V30.0909H106.127V34.3239H106.98L109.949 30.0909H113.5L109.643 35.5028L113.542 41H109.949L107.257 37.1293H106.127V41H103.102ZM117.931 41.206C117.235 41.206 116.615 41.0852 116.071 40.8438C115.526 40.5975 115.095 40.2353 114.778 39.7571C114.466 39.2741 114.309 38.6728 114.309 37.9531C114.309 37.3471 114.421 36.8381 114.643 36.4261C114.866 36.0142 115.169 35.6828 115.552 35.4318C115.936 35.1809 116.371 34.9915 116.859 34.8636C117.351 34.7358 117.868 34.6458 118.407 34.5938C119.042 34.5275 119.553 34.4659 119.941 34.4091C120.33 34.3475 120.611 34.2576 120.787 34.1392C120.962 34.0208 121.049 33.8456 121.049 33.6136V33.571C121.049 33.1212 120.907 32.7732 120.623 32.527C120.344 32.2808 119.946 32.1577 119.43 32.1577C118.886 32.1577 118.452 32.2784 118.13 32.5199C117.808 32.7566 117.595 33.0549 117.491 33.4148L114.693 33.1875C114.835 32.5246 115.114 31.9517 115.531 31.4688C115.948 30.9811 116.485 30.607 117.143 30.3466C117.806 30.0814 118.573 29.9489 119.444 29.9489C120.05 29.9489 120.63 30.0199 121.184 30.1619C121.743 30.304 122.238 30.5241 122.669 30.8224C123.104 31.1207 123.448 31.5043 123.699 31.973C123.949 32.437 124.075 32.9934 124.075 33.642V41H121.206V39.4872H121.12C120.945 39.8281 120.711 40.1288 120.417 40.3892C120.124 40.6449 119.771 40.8461 119.359 40.9929C118.947 41.1349 118.471 41.206 117.931 41.206ZM118.798 39.1179C119.243 39.1179 119.636 39.0303 119.977 38.8551C120.318 38.6752 120.585 38.4337 120.779 38.1307C120.974 37.8277 121.071 37.4844 121.071 37.1009V35.9432C120.976 36.0047 120.846 36.0616 120.68 36.1136C120.519 36.161 120.337 36.206 120.133 36.2486C119.93 36.2865 119.726 36.322 119.522 36.3551C119.319 36.3835 119.134 36.4096 118.968 36.4332C118.613 36.4853 118.303 36.5682 118.038 36.6818C117.773 36.7955 117.567 36.9493 117.42 37.1435C117.273 37.3329 117.2 37.5696 117.2 37.8537C117.2 38.2656 117.349 38.5805 117.647 38.7983C117.95 39.0114 118.334 39.1179 118.798 39.1179ZM138.643 34.3381V36.7173H132.947V34.3381H138.643ZM133.942 30.0909V41H131.051V30.0909H133.942ZM140.54 30.0909V41H137.67V30.0909H140.54ZM145.998 41.206C145.302 41.206 144.682 41.0852 144.137 40.8438C143.593 40.5975 143.162 40.2353 142.844 39.7571C142.532 39.2741 142.376 38.6728 142.376 37.9531C142.376 37.3471 142.487 36.8381 142.71 36.4261C142.932 36.0142 143.235 35.6828 143.619 35.4318C144.002 35.1809 144.438 34.9915 144.925 34.8636C145.418 34.7358 145.934 34.6458 146.474 34.5938C147.108 34.5275 147.62 34.4659 148.008 34.4091C148.396 34.3475 148.678 34.2576 148.853 34.1392C149.028 34.0208 149.116 33.8456 149.116 33.6136V33.571C149.116 33.1212 148.974 32.7732 148.69 32.527C148.41 32.2808 148.013 32.1577 147.496 32.1577C146.952 32.1577 146.519 32.2784 146.197 32.5199C145.875 32.7566 145.662 33.0549 145.558 33.4148L142.759 33.1875C142.901 32.5246 143.181 31.9517 143.597 31.4688C144.014 30.9811 144.551 30.607 145.21 30.3466C145.872 30.0814 146.639 29.9489 147.511 29.9489C148.117 29.9489 148.697 30.0199 149.251 30.1619C149.809 30.304 150.304 30.5241 150.735 30.8224C151.171 31.1207 151.514 31.5043 151.765 31.973C152.016 32.437 152.141 32.9934 152.141 33.642V41H149.272V39.4872H149.187C149.012 39.8281 148.777 40.1288 148.484 40.3892C148.19 40.6449 147.837 40.8461 147.425 40.9929C147.013 41.1349 146.538 41.206 145.998 41.206ZM146.864 39.1179C147.309 39.1179 147.702 39.0303 148.043 38.8551C148.384 38.6752 148.652 38.4337 148.846 38.1307C149.04 37.8277 149.137 37.4844 149.137 37.1009V35.9432C149.042 36.0047 148.912 36.0616 148.746 36.1136C148.585 36.161 148.403 36.206 148.2 36.2486C147.996 36.2865 147.792 36.322 147.589 36.3551C147.385 36.3835 147.201 36.4096 147.035 36.4332C146.68 36.4853 146.37 36.5682 146.104 36.6818C145.839 36.7955 145.633 36.9493 145.487 37.1435C145.34 37.3329 145.266 37.5696 145.266 37.8537C145.266 38.2656 145.415 38.5805 145.714 38.7983C146.017 39.0114 146.4 39.1179 146.864 39.1179ZM158.322 26.4545H161.767L165.083 32.7188H165.225L168.542 26.4545H171.987L166.681 35.858V41H163.627V35.858L158.322 26.4545ZM176.254 41.2131C175.15 41.2131 174.196 40.9787 173.391 40.5099C172.591 40.0365 171.973 39.3783 171.538 38.5355C171.102 37.688 170.884 36.7055 170.884 35.5881C170.884 34.4612 171.102 33.4763 171.538 32.6335C171.973 31.786 172.591 31.1278 173.391 30.6591C174.196 30.1856 175.15 29.9489 176.254 29.9489C177.357 29.9489 178.308 30.1856 179.109 30.6591C179.914 31.1278 180.534 31.786 180.969 32.6335C181.405 33.4763 181.623 34.4612 181.623 35.5881C181.623 36.7055 181.405 37.688 180.969 38.5355C180.534 39.3783 179.914 40.0365 179.109 40.5099C178.308 40.9787 177.357 41.2131 176.254 41.2131ZM176.268 38.8693C176.77 38.8693 177.189 38.7273 177.525 38.4432C177.861 38.1544 178.114 37.7614 178.285 37.2642C178.46 36.767 178.548 36.2012 178.548 35.5668C178.548 34.9323 178.46 34.3665 178.285 33.8693C178.114 33.3722 177.861 32.9792 177.525 32.6903C177.189 32.4015 176.77 32.2571 176.268 32.2571C175.761 32.2571 175.335 32.4015 174.989 32.6903C174.648 32.9792 174.39 33.3722 174.215 33.8693C174.045 34.3665 173.96 34.9323 173.96 35.5668C173.96 36.2012 174.045 36.767 174.215 37.2642C174.39 37.7614 174.648 38.1544 174.989 38.4432C175.335 38.7273 175.761 38.8693 176.268 38.8693ZM190.586 36.3551V30.0909H193.612V41H190.707V39.0185H190.593C190.347 39.6577 189.937 40.1714 189.364 40.5597C188.796 40.9479 188.103 41.142 187.283 41.142C186.554 41.142 185.913 40.9763 185.359 40.6449C184.805 40.3134 184.371 39.8423 184.059 39.2315C183.751 38.6207 183.595 37.8892 183.59 37.0369V30.0909H186.616V36.4972C186.621 37.1411 186.793 37.6501 187.134 38.0241C187.475 38.3982 187.932 38.5852 188.505 38.5852C188.87 38.5852 189.21 38.5024 189.528 38.3366C189.845 38.1662 190.101 37.9152 190.295 37.5838C190.494 37.2524 190.591 36.8428 190.586 36.3551ZM194.519 28.9901V26.4545H206.465V28.9901H202.012V41H198.972V28.9901H194.519ZM213.887 36.3551V30.0909H216.912V41H214.007V39.0185H213.894C213.648 39.6577 213.238 40.1714 212.665 40.5597C212.097 40.9479 211.403 41.142 210.584 41.142C209.855 41.142 209.213 40.9763 208.659 40.6449C208.105 40.3134 207.672 39.8423 207.36 39.2315C207.052 38.6207 206.896 37.8892 206.891 37.0369V30.0909H209.917V36.4972C209.921 37.1411 210.094 37.6501 210.435 38.0241C210.776 38.3982 211.233 38.5852 211.806 38.5852C212.17 38.5852 212.511 38.5024 212.828 38.3366C213.146 38.1662 213.401 37.9152 213.596 37.5838C213.794 37.2524 213.891 36.8428 213.887 36.3551ZM219.389 41V26.4545H222.415V31.9233H222.507C222.64 31.6297 222.831 31.3314 223.082 31.0284C223.338 30.7206 223.67 30.465 224.077 30.2614C224.489 30.053 225 29.9489 225.611 29.9489C226.406 29.9489 227.14 30.1572 227.812 30.5739C228.485 30.9858 229.022 31.6084 229.425 32.4418C229.827 33.2704 230.028 34.3097 230.028 35.5597C230.028 36.7765 229.832 37.804 229.439 38.642C229.051 39.4754 228.52 40.1075 227.848 40.5384C227.18 40.9645 226.432 41.1776 225.604 41.1776C225.017 41.1776 224.517 41.0805 224.105 40.8864C223.698 40.6922 223.364 40.4484 223.104 40.1548C222.843 39.8565 222.644 39.5559 222.507 39.2528H222.372V41H219.389ZM222.351 35.5455C222.351 36.1941 222.441 36.7599 222.621 37.2429C222.801 37.7259 223.061 38.1023 223.402 38.3722C223.743 38.6373 224.157 38.7699 224.645 38.7699C225.137 38.7699 225.554 38.6349 225.895 38.3651C226.236 38.0904 226.494 37.7116 226.669 37.2287C226.849 36.741 226.939 36.1799 226.939 35.5455C226.939 34.9157 226.851 34.3617 226.676 33.8835C226.501 33.4053 226.243 33.0312 225.902 32.7614C225.561 32.4915 225.142 32.3565 224.645 32.3565C224.152 32.3565 223.736 32.4867 223.395 32.7472C223.059 33.0076 222.801 33.3769 222.621 33.8551C222.441 34.3333 222.351 34.8968 222.351 35.5455ZM237.019 41.2131C235.897 41.2131 234.931 40.9858 234.121 40.5312C233.316 40.072 232.696 39.4233 232.26 38.5852C231.825 37.7424 231.607 36.7457 231.607 35.5952C231.607 34.473 231.825 33.4882 232.26 32.6406C232.696 31.7931 233.309 31.1326 234.1 30.6591C234.895 30.1856 235.828 29.9489 236.898 29.9489C237.618 29.9489 238.288 30.0649 238.908 30.2969C239.533 30.5241 240.078 30.8674 240.542 31.3267C241.01 31.786 241.375 32.3636 241.635 33.0597C241.896 33.7509 242.026 34.5606 242.026 35.4886V36.3196H232.814V34.4446H239.178C239.178 34.009 239.083 33.6231 238.894 33.2869C238.704 32.9508 238.442 32.688 238.105 32.4986C237.774 32.3045 237.388 32.2074 236.948 32.2074C236.489 32.2074 236.081 32.3139 235.726 32.527C235.376 32.7353 235.101 33.017 234.902 33.3722C234.703 33.7225 234.602 34.1132 234.597 34.544V36.3267C234.597 36.8665 234.696 37.3329 234.895 37.7259C235.099 38.1188 235.385 38.4219 235.755 38.6349C236.124 38.848 236.562 38.9545 237.069 38.9545C237.405 38.9545 237.712 38.9072 237.992 38.8125C238.271 38.7178 238.51 38.5758 238.709 38.3864C238.908 38.197 239.06 37.965 239.164 37.6903L241.962 37.875C241.82 38.5473 241.529 39.1345 241.088 39.6364C240.653 40.1335 240.089 40.5218 239.398 40.8011C238.712 41.0758 237.918 41.2131 237.019 41.2131Z" fill="white"/>
</svg>
